<?xml version="1.0" encoding="UTF-8"?>
<!DOCTYPE svg PUBLIC "-//W3C//DTD SVG 1.1//EN" "http://www.w3.org/Graphics/SVG/1.1/DTD/svg11.dtd">
<!-- Creator: CorelDRAW Home & Student X8 -->
<svg xmlns="http://www.w3.org/2000/svg" xml:space="preserve" width="1250px" height="300px" version="1.1" style="shape-rendering:geometricPrecision; text-rendering:geometricPrecision; image-rendering:optimizeQuality; fill-rule:evenodd; clip-rule:evenodd"
viewBox="0 0 1250 300"
 xmlns:xlink="http://www.w3.org/1999/xlink">
 <defs>
  <style type="text/css">
   <![CDATA[
    .fil0 {fill:black}
   ]]>
  </style>
   <clipPath id="id0">
    <rect x="715" y="-402" width="567" height="450"/>
   </clipPath>
   <clipPath id="id1">
    <path d="M715 48l567 0 0 -450 -567 0 0 450z"/>
   </clipPath>
   <clipPath id="id2">
    <rect x="715" y="-402" width="567" height="450"/>
   </clipPath>
 </defs>
 <g id="Camada_x0020_1">
  <metadata id="CorelCorpID_0Corel-Layer"/>
  <g style="clip-path:url(#id0)">
  </g>
  <g style="clip-path:url(#id1)">
   <image id="sketch-1638704161513.png" x="715" y="-402" width="567" height="450" xlink:href="arabesco_Images\arabesco_ImgID1.png"/>
  </g>
  <g style="clip-path:url(#id2)">
  </g>
  <g id="_210628408">
   <g>
    <path class="fil0" d="M1070 209c8,-3 19,-9 26,-22 6,-11 7,-21 6,-35 -8,-33 -60,-33 -85,-11 -3,3 -5,5 -9,11 7,-4 1,0 10,-7 18,-15 49,-24 69,-9 17,11 15,34 4,53 -5,10 -14,14 -25,18 -23,9 -61,-3 -85,-10 -26,-8 -71,-25 -177,-23 -7,0 -19,1 -22,3 17,2 101,-1 167,16 33,10 91,29 121,16z"/>
    <path class="fil0" d="M936 34c-14,-6 -36,-4 -48,6 -7,5 -10,10 -10,20 0,8 3,16 18,27 -7,-11 -13,-9 -14,-29 0,-28 50,-31 68,-10 7,9 7,17 7,25 0,69 -79,76 -131,84 -6,1 -10,1 -17,6 23,-2 56,-8 78,-13 32,-7 67,-30 74,-64 4,-23 -3,-42 -25,-52z"/>
    <path class="fil0" d="M848 194c20,11 26,26 30,45 3,12 1,23 14,28 15,6 27,-2 27,-18 0,-2 -2,-6 -4,-8 -2,-1 -4,-3 -4,-3 -1,0 0,2 3,7 0,0 6,9 -5,19 -3,3 -6,3 -11,2 -12,-3 -15,-13 -16,-24 -2,-12 -8,-31 -16,-40 -18,-19 -48,-21 -72,-15 19,0 37,0 54,7z"/>
   </g>
   <g>
    <path class="fil0" d="M545 121c21,-8 49,-11 77,-10 -12,30 -51,33 -73,27 -14,-3 -22,-11 -4,-17zm196 46c-8,6 -21,7 -31,10 -7,3 -7,2 -11,8 5,-3 7,-7 23,-9 19,-2 30,-6 23,-27 -4,-8 -16,-18 -26,-14 -8,5 -12,10 -17,20 -4,8 -8,17 -12,25 -5,8 -10,20 -15,27 -12,15 -25,22 -44,22 -29,1 -51,-8 -78,-39 -7,-10 -14,-22 -18,-33 7,6 50,12 59,13 11,2 22,2 35,1 6,0 18,-2 24,-4 5,-1 14,-4 19,-5 8,-4 12,-5 20,-11 18,-16 2,-32 -17,-38 -20,-6 -41,-6 -48,-6 10,-22 7,-67 -19,-80 -11,-5 -24,2 -27,12 0,4 0,8 2,11 5,7 17,4 18,2 -1,1 -2,1 -3,1 -2,0 -5,1 -9,-2 -5,-2 -6,-7 -5,-11 2,-6 9,-11 17,-11 2,-1 5,0 7,1 12,9 18,17 20,31 4,27 0,33 -5,46 -10,0 -20,-1 -31,0 -19,2 -43,4 -59,17 -7,8 1,13 12,17 28,9 69,1 81,-30 23,0 39,1 58,9 10,5 12,10 13,14 1,12 -19,21 -28,25 -9,3 -35,9 -46,9 -25,2 -63,-6 -87,-16 -3,0 -6,-2 -5,3 1,5 5,14 8,19 3,5 7,11 11,17 6,9 13,14 21,22 3,3 18,12 22,14 8,3 13,4 22,5 27,4 51,-4 66,-29 5,-8 9,-16 13,-24 4,-8 7,-15 11,-22 6,-12 12,-19 19,-19 16,-1 26,23 17,29z"/>
    <path class="fil0" d="M752 240c-41,24 -74,28 -121,28 -31,0 -57,-1 -88,-6 -14,-3 -34,-11 -45,-20 -18,-15 0,-23 16,-29 14,-6 23,-9 23,-9 -10,0 -43,12 -49,22 -2,3 -2,7 -1,10 4,6 11,12 17,16 13,6 24,10 35,13 59,15 167,17 216,-23 16,-10 8,-23 -10,-29l-16 -5c-3,-1 -22,-6 -25,-5 -1,0 -1,0 -1,1 3,0 21,5 25,6 11,4 16,5 27,11 10,5 4,14 -3,19z"/>
   </g>
   <g>
    <path class="fil0" d="M180 209c-8,-3 -19,-9 -26,-22 -6,-11 -7,-21 -6,-35 8,-33 60,-33 85,-11 3,3 5,5 9,11 -7,-4 -1,0 -10,-7 -18,-15 -49,-24 -69,-9 -17,11 -15,34 -4,53 5,10 14,14 25,18 23,9 61,-3 85,-10 26,-8 71,-25 177,-23 7,0 19,1 22,3 -17,2 -101,-1 -167,16 -33,10 -91,29 -121,16z"/>
    <path class="fil0" d="M314 34c14,-6 36,-4 48,6 7,5 10,10 10,20 0,8 -3,16 -18,27 7,-11 13,-9 14,-29 0,-28 -50,-31 -68,-10 -7,9 -7,17 -7,25 0,69 79,76 131,84 6,1 10,1 17,6 -23,-2 -56,-8 -78,-13 -32,-7 -67,-30 -74,-64 -4,-23 3,-42 25,-52z"/>
    <path class="fil0" d="M402 194c-20,11 -26,26 -30,45 -3,12 -1,23 -14,28 -15,6 -27,-2 -27,-18 0,-2 2,-6 4,-8 2,-1 4,-3 4,-3 1,0 0,2 -3,7 0,0 -6,9 5,19 3,3 6,3 11,2 12,-3 15,-13 16,-24 2,-12 8,-31 16,-40 18,-19 48,-21 72,-15 -19,0 -37,0 -54,7z"/>
   </g>
  </g>
 </g>
</svg>
