<?xml version="1.0" encoding="UTF-8"?>
<!DOCTYPE svg PUBLIC "-//W3C//DTD SVG 1.1//EN" "http://www.w3.org/Graphics/SVG/1.1/DTD/svg11.dtd">
<!-- Creator: CorelDRAW Home & Student X8 -->
<svg xmlns="http://www.w3.org/2000/svg" xml:space="preserve" width="1250px" height="300px" version="1.1" style="shape-rendering:geometricPrecision; text-rendering:geometricPrecision; image-rendering:optimizeQuality; fill-rule:evenodd; clip-rule:evenodd"
viewBox="0 0 1250 300"
 xmlns:xlink="http://www.w3.org/1999/xlink">
 <defs>
  <style type="text/css">
   <![CDATA[
    .str1 {stroke:black;stroke-width:2.81221;stroke-linecap:round;stroke-linejoin:round;stroke-dasharray:2.811027 8.433081}
    .str0 {stroke:black;stroke-width:2.81221;stroke-linecap:round;stroke-linejoin:bevel;stroke-dasharray:2.811027 8.433081}
    .fil4 {fill:none}
    .fil0 {fill:black}
    .fil3 {fill:#010101}
    .fil1 {fill:#121212}
    .fil2 {fill:#FEFEFE}
   ]]>
  </style>
 </defs>
 <g id="Camada_x0020_1">
  <metadata id="CorelCorpID_0Corel-Layer"/>
  <g id="_509741568">
   <g>
    <g>
     <path class="fil0" d="M1234 121c0,0 3,-7 -4,-7 0,2 1,4 4,7z"/>
     <path class="fil0" d="M978 154c5,1 5,1 7,-3 -4,-3 -6,-2 -7,3z"/>
     <path class="fil0" d="M1017 125c5,0 7,0 7,-5 -5,0 -6,1 -7,5z"/>
     <path class="fil0" d="M673 145c0,0 -2,5 5,5 0,-5 -1,-6 -5,-5z"/>
     <path class="fil0" d="M768 129c4,0 7,-1 4,-6 -3,2 -4,3 -4,6z"/>
     <path class="fil0" d="M490 154c4,0 6,-1 6,-5 -4,0 -6,1 -6,5z"/>
     <path class="fil0" d="M728 157c5,3 6,3 7,-2 -5,-1 -3,-1 -7,2z"/>
     <path class="fil0" d="M518 131c5,0 5,0 7,-4 -4,-2 -6,-1 -7,4z"/>
     <path class="fil0" d="M776 121c4,0 5,-1 5,-6 -4,0 -5,1 -5,6z"/>
     <path class="fil0" d="M1095 155c3,-2 5,-2 2,-8 -4,3 -5,3 -2,8z"/>
     <path class="fil0" d="M759 138c4,1 5,-1 5,-5 -5,0 -5,1 -5,5z"/>
     <path class="fil0" d="M750 146c5,0 6,0 6,-5 -5,0 -6,1 -6,5z"/>
     <path class="fil0" d="M864 103c3,3 3,4 7,4 0,-5 -3,-6 -7,-4z"/>
     <path class="fil0" d="M1171 191c5,0 6,0 6,-5 -4,0 -6,0 -6,5z"/>
     <path class="fil0" d="M1137 167c5,0 5,-2 5,-6 -4,0 -5,1 -5,6z"/>
     <path class="fil0" d="M1216 192c4,-2 4,-3 4,-7 -4,1 -6,3 -4,7z"/>
     <path class="fil0" d="M1121 129c5,4 4,2 7,-1 -2,-4 -4,-2 -7,1z"/>
     <path class="fil0" d="M1101 144c5,0 5,-1 5,-6 -4,1 -5,1 -5,6z"/>
     <path class="fil0" d="M669 141c0,-4 0,-5 -5,-5 0,4 0,5 5,5z"/>
     <path class="fil0" d="M1200 210c5,0 6,0 5,-5 -3,0 -5,1 -5,5z"/>
     <path class="fil0" d="M1179 223c4,0 5,0 7,-4 -3,-2 -7,0 -7,4z"/>
     <path class="fil0" d="M785 113c3,-1 5,-2 6,-6 -5,0 -6,1 -6,6z"/>
     <path class="fil0" d="M1144 189c0,-4 -1,-5 -5,-6 0,4 -1,6 5,6z"/>
     <path class="fil0" d="M1090 165c4,-1 4,-4 2,-7 -3,3 -3,3 -2,7z"/>
     <path class="fil0" d="M1147 160c4,2 4,2 7,0 -2,-4 -5,-3 -7,0z"/>
     <path class="fil0" d="M655 128c1,2 0,5 6,5 0,-4 -1,-5 -6,-5z"/>
     <path class="fil0" d="M1186 76c4,3 4,4 8,2 -3,-4 -4,-4 -8,-2z"/>
     <path class="fil0" d="M903 132c0,1 -1,6 5,6 0,-4 -1,-6 -5,-6z"/>
     <path class="fil0" d="M563 111c3,2 5,2 7,-2 -3,-2 -5,-1 -7,2z"/>
     <path class="fil0" d="M1147 192c3,3 4,3 8,1 -4,-3 -4,-4 -8,-1z"/>
     <path class="fil0" d="M1093 189c2,-3 1,-5 -1,-8 -3,4 -2,6 1,8z"/>
     <path class="fil0" d="M1047 104c5,0 6,0 6,-5 -3,0 -5,0 -6,5z"/>
     <path class="fil0" d="M634 116c4,3 2,3 8,2 -2,-5 -4,-4 -8,-2z"/>
     <path class="fil0" d="M1222 181c4,-2 5,-3 3,-7 -3,2 -5,4 -3,7z"/>
     <path class="fil0" d="M645 120c3,4 2,5 6,5 0,-5 -2,-6 -6,-5z"/>
     <path class="fil0" d="M1027 117c5,1 5,1 6,-4 -5,0 -6,-1 -6,4z"/>
     <path class="fil0" d="M1214 92c0,-4 -2,-5 -5,-5 -1,3 0,5 5,5z"/>
     <path class="fil0" d="M499 145c5,1 5,0 5,-4 -4,0 -4,0 -5,4z"/>
     <path class="fil0" d="M1008 132c6,1 6,0 6,-4 -5,0 -5,0 -6,4z"/>
     <path class="fil0" d="M1156 127c4,3 3,4 7,2 -3,-4 -2,-4 -7,-2z"/>
     <path class="fil0" d="M1110 136c4,0 6,-1 6,-5 -4,0 -5,1 -6,5z"/>
     <path class="fil0" d="M539 119c4,2 5,1 8,-2 -4,-2 -5,-1 -8,2z"/>
     <path class="fil0" d="M1037 110c4,0 6,0 6,-4 -5,0 -5,0 -6,4z"/>
     <path class="fil0" d="M1228 170c3,-2 4,-4 2,-7 -4,3 -4,4 -2,7z"/>
     <path class="fil0" d="M682 153c1,1 1,6 6,3 -1,-4 -2,-4 -6,-3z"/>
     <path class="fil0" d="M1209 201c5,0 4,-1 4,-5 -4,0 -4,1 -4,5z"/>
     <path class="fil0" d="M921 149c1,1 -2,5 6,4 -1,-3 -2,-4 -6,-4z"/>
     <path class="fil0" d="M795 105c4,0 5,0 6,-4 -4,0 -6,0 -6,4z"/>
     <path class="fil0" d="M1189 216c4,3 6,1 7,-3 -5,0 -4,-1 -7,3z"/>
     <path class="fil0" d="M1180 182c4,-1 4,-3 2,-7 -3,3 -3,3 -2,7z"/>
     <path class="fil0" d="M1130 225c4,3 4,4 8,2 -3,-4 -4,-4 -8,-2z"/>
     <path class="fil0" d="M954 160c4,2 6,3 8,-1 -3,-2 -4,-1 -8,1z"/>
     <path class="fil0" d="M740 152c4,3 5,1 6,-4 -5,1 -4,1 -6,4z"/>
     <path class="fil0" d="M1167 132c1,0 0,5 6,5 0,-5 -2,-5 -6,-5z"/>
     <path class="fil0" d="M1098 200c2,-4 2,-6 -3,-7 0,4 -3,3 3,7z"/>
     <path class="fil0" d="M1222 101c0,-4 -1,-5 -5,-6 0,4 0,5 5,6z"/>
     <path class="fil0" d="M912 142c0,0 -2,4 5,4 0,-5 -1,-5 -5,-4z"/>
     <path class="fil0" d="M1163 227c-5,-3 -5,-2 -9,0 4,3 4,3 9,0z"/>
     <path class="fil0" d="M1197 81c4,3 3,4 8,3 -1,-4 -4,-4 -8,-3z"/>
     <path class="fil0" d="M1176 141c0,1 -2,5 4,6 0,-4 0,-6 -4,-6z"/>
     <path class="fil0" d="M930 155c4,4 3,4 8,3 -2,-3 -4,-4 -8,-3z"/>
     <path class="fil0" d="M989 147c5,0 4,0 6,-3 -4,-3 -5,-1 -6,3z"/>
     <path class="fil0" d="M1137 171c-3,4 -3,4 0,7 2,-3 3,-3 0,-7z"/>
     <path class="fil0" d="M1107 209c0,-4 -1,-4 -5,-5 0,3 0,5 5,5z"/>
     <path class="fil0" d="M1183 159c2,-4 2,-5 -2,-8 -2,4 -1,5 2,8z"/>
     <path class="fil0" d="M942 160c5,2 4,3 8,0 -5,-4 -3,-3 -8,0z"/>
     <path class="fil0" d="M1228 112c2,-4 1,-6 -3,-7 -1,4 -1,4 3,7z"/>
     <path class="fil0" d="M853 99c3,3 4,3 8,1 -6,-5 -5,-2 -8,-1z"/>
     <path class="fil0" d="M599 108c4,2 4,3 8,0 -4,-3 -4,-3 -8,0z"/>
     <path class="fil0" d="M1183 171c3,-5 3,-3 0,-7 -4,4 -3,3 0,7z"/>
     <path class="fil0" d="M717 161c5,2 4,3 8,-1 -5,-3 -4,-2 -8,1z"/>
     <path class="fil0" d="M704 162c5,2 3,2 8,-1 -5,-3 -3,-2 -8,1z"/>
     <path class="fil0" d="M1144 125c5,2 3,3 8,0 -5,-4 -3,-3 -8,0z"/>
     <path class="fil0" d="M999 140c4,0 5,0 5,-4 -4,0 -5,0 -5,4z"/>
     <path class="fil0" d="M1166 225c5,2 5,3 8,-1 -4,-2 -4,-1 -8,1z"/>
     <path class="fil0" d="M692 158c3,4 3,4 8,2 -4,-3 -3,-3 -8,-2z"/>
     <path class="fil0" d="M1138 71c4,2 4,2 8,0 -4,-3 -4,-2 -8,0z"/>
     <path class="fil0" d="M1175 73c4,2 4,3 7,1 -3,-4 -3,-3 -7,-1z"/>
     <path class="fil0" d="M841 95c3,3 3,4 8,2 -4,-4 -4,-3 -8,-2z"/>
     <path class="fil0" d="M622 111c4,4 4,4 8,2 -3,-3 -3,-4 -8,-2z"/>
     <path class="fil0" d="M1120 220c0,0 2,5 7,3 -3,-4 -3,-4 -7,-3z"/>
     <path class="fil0" d="M829 95c4,2 4,2 8,0 -4,-3 -4,-3 -8,0z"/>
     <path class="fil0" d="M586 108c4,2 4,2 8,-1 -4,-2 -4,-2 -8,1z"/>
     <path class="fil0" d="M611 109c5,3 3,3 8,1 -5,-4 -3,-3 -8,-1z"/>
     <path class="fil0" d="M551 114c4,2 5,2 7,-1 -4,-3 -4,-1 -7,1z"/>
     <path class="fil0" d="M1090 177c3,-4 3,-3 0,-7 -3,5 -3,3 0,7z"/>
     <path class="fil0" d="M1132 125c5,2 3,3 8,0 -4,-3 -3,-2 -8,0z"/>
     <path class="fil0" d="M1126 73c4,2 5,1 8,-2 -4,-2 -4,-1 -8,2z"/>
     <path class="fil0" d="M529 124c4,2 5,1 5,-3 -5,0 -2,-1 -5,3z"/>
     <path class="fil0" d="M574 108c5,3 3,4 8,0 -4,-2 -3,-2 -8,0z"/>
     <path class="fil0" d="M1069 91c4,1 5,1 6,-3 -4,0 -5,0 -6,3z"/>
     <path class="fil0" d="M885 116c0,0 0,4 6,5 -1,-4 -2,-5 -6,-5z"/>
     <path class="fil0" d="M875 109c1,0 0,4 6,4 -1,-4 -2,-4 -6,-4z"/>
     <path class="fil0" d="M805 98c4,3 2,3 7,-1 -4,-2 -3,-1 -7,1z"/>
     <path class="fil0" d="M1162 71c5,2 4,3 8,0 -4,-2 -4,-2 -8,0z"/>
     <path class="fil0" d="M1159 193c5,3 4,3 7,0 -4,-3 -2,-3 -7,0z"/>
     <path class="fil0" d="M508 137c5,0 5,1 5,-4 -5,0 -4,0 -5,4z"/>
     <path class="fil0" d="M1142 227c5,3 3,4 8,1 -4,-3 -3,-3 -8,-1z"/>
     <path class="fil0" d="M1115 75c3,2 4,2 7,-2 -4,-2 -5,-1 -7,2z"/>
     <path class="fil0" d="M894 124c1,2 0,4 5,5 0,-5 -1,-5 -5,-5z"/>
     <path class="fil0" d="M817 96c4,2 4,2 7,-1 -5,-3 -6,1 -7,1z"/>
     <path class="fil0" d="M1080 86c4,1 5,1 6,-3 -3,0 -5,0 -6,3z"/>
     <path class="fil0" d="M482 164c2,-2 5,-3 6,-6 -7,0 -6,3 -6,6z"/>
     <path class="fil0" d="M1110 213c1,0 1,4 5,5 0,-6 -1,-5 -5,-5z"/>
     <path class="fil0" d="M1057 96c4,3 7,2 7,-3l-7 3z"/>
     <path class="fil0" d="M1091 82c3,1 5,0 7,-1 -6,-4 -5,-1 -7,1z"/>
    </g>
    <path class="fil0" d="M1102 78c6,2 6,2 8,-2 -3,-2 -6,-2 -8,2z"/>
   </g>
   <g>
    <g>
     <path class="fil1" d="M92 82c0,3 3,10 6,7 1,-2 0,-3 -1,-4 -3,-3 -2,-3 -5,-3l0 0z"/>
     <path class="fil1" d="M112 112c0,-4 0,-7 -5,-8 -1,5 0,7 5,8z"/>
     <path class="fil1" d="M119 119c-1,-2 -3,-4 -5,-4 -1,4 1,7 5,7 0,-2 2,2 0,-3l0 0z"/>
     <path class="fil1" d="M105 101c0,-5 -1,-7 -6,-8 0,5 1,7 6,8z"/>
     <path class="fil1" d="M127 126c-2,-2 -2,-2 -4,-1 0,4 3,5 7,5 0,-3 0,-3 -3,-4z"/>
     <path class="fil1" d="M386 132c3,-2 2,-4 0,-7 -2,0 -2,0 -2,3 0,3 1,3 2,4z"/>
     <path class="fil1" d="M369 105c-1,2 3,5 6,4 0,-2 0,-3 -3,-4 -1,-1 -3,-2 -3,0l0 0z"/>
     <path class="fil1" d="M357 102c1,0 0,1 3,1 2,1 3,0 4,0 -2,-4 -5,-5 -7,-1z"/>
     <path class="fil1" d="M322 116c3,1 5,-1 6,-4 -4,0 -5,0 -6,4z"/>
     <path class="fil1" d="M344 103c4,2 6,0 7,-2 -3,-1 -6,-1 -7,2z"/>
     <path class="fil1" d="M378 113c1,2 0,3 2,5 2,2 1,1 3,1 0,-3 -1,-5 -5,-6z"/>
     <path class="fil1" d="M310 121c4,3 5,0 6,-1 0,-1 1,-3 -3,-1 -2,1 -2,1 -3,2z"/>
     <path class="fil1" d="M333 109c2,0 2,0 3,-1 3,-1 2,-1 3,-2 -3,-2 -6,-1 -6,3z"/>
    </g>
    <g>
     <path class="fil2" d="M186 86c10,-7 20,3 23,19 1,6 1,13 0,20 -4,14 -39,9 -39,-11 1,-12 8,-22 16,-28zm-34 26c0,8 7,6 -5,12 -1,5 -1,11 1,15 22,3 23,-1 47,15 12,9 23,22 35,28 31,17 78,-26 54,-78 -2,-5 -4,-13 -12,-19 -3,-3 -5,-5 -8,-7 -10,-5 -14,-11 -34,-13 -27,-3 -55,3 -66,27 -2,6 -1,7 -3,13 -1,5 -5,3 -9,7l0 0z"/>
     <path class="fil2" d="M211 282c5,4 21,2 28,0 29,-7 33,-49 27,-65 -13,-2 -40,17 -88,-15 -4,-3 -5,-5 -11,-5 -7,8 -16,35 -5,29 6,-3 7,-6 16,-7 7,-1 16,0 22,2 11,5 17,12 20,26 2,7 3,23 -4,29 -4,4 -5,1 -5,6l0 0z"/>
     <path class="fil2" d="M26 50c0,0 0,1 0,1 -1,-1 -1,0 -1,0 -1,1 -1,-2 -1,2 0,1 0,2 3,3 3,2 18,3 7,-6 -2,1 -1,0 -2,1l-5 0c0,-1 -1,-1 -1,-1l0 0z"/>
     <path class="fil2" d="M188 112l0 -4 -3 -1c-1,2 -1,3 -1,4 2,3 4,1 4,1l0 0z"/>
    </g>
    <g>
     <path class="fil3" d="M211 282c0,-5 1,-2 5,-6 7,-6 6,-22 4,-29 -3,-14 -9,-21 -20,-26 -6,-2 -15,-3 -22,-2 -9,1 -10,4 -16,7 -11,6 -2,-21 5,-29 6,0 7,2 11,5 48,32 75,13 88,15 6,16 2,58 -27,65 -7,2 -23,4 -28,0l0 0zm-59 -170c4,-4 8,-2 9,-7 2,-6 1,-7 3,-13 11,-24 39,-30 66,-27 20,2 24,8 34,13 3,2 5,4 8,7 8,6 10,14 12,19 24,52 -23,95 -54,78 -12,-6 -23,-19 -35,-28 -24,-16 -25,-12 -47,-15 -2,-4 -2,-10 -1,-15 12,-6 5,-4 5,-12l0 0zm138 -12c7,-4 12,-8 11,-20 -1,-9 -6,-15 -11,-20 -8,-10 -14,-4 -24,-6 -9,-3 -14,-4 -22,6 -10,0 -17,-4 -42,-1 -15,2 -22,6 -31,14 -13,10 -15,26 -16,29 -2,4 -10,3 -14,9 -3,5 -1,13 -1,19l-6 2c3,5 3,2 4,6 -5,3 -7,2 -10,7 -10,14 7,35 17,44 15,15 13,6 6,34 -5,0 -23,-9 -27,14 -3,14 4,26 10,35 5,7 16,16 29,17 10,0 12,-6 19,-5 4,0 6,2 11,2 5,0 5,-1 11,-1 7,2 9,3 19,4 15,1 14,-4 18,1 3,3 6,8 16,6 17,-3 29,-18 33,-36 6,-33 -12,-24 -16,-27 -2,-4 -3,-19 -5,-25 -2,-7 -9,-15 -9,-20 1,-2 12,-8 14,-10 16,-13 20,-30 22,-49 6,-1 7,-1 9,-5 -5,0 -4,1 -9,3l-6 -27 0 0z"/>
     <path class="fil3" d="M25 51c0,0 0,-1 1,0 0,0 0,-1 0,-1 0,0 1,0 1,1l5 0c1,-1 0,0 2,-1 11,9 -4,8 -7,6 -3,-1 -3,-2 -3,-3 0,-4 0,-1 1,-2l0 0zm1 -8c-2,5 -6,3 -5,13 5,6 6,3 14,5 7,2 3,6 15,5 8,-1 9,-2 17,1 3,1 4,2 8,2 12,1 7,-7 11,-11 4,-4 13,-9 4,-24 -4,-7 -15,-17 -22,-11 -3,2 -1,5 -5,7 -4,-2 -3,-3 -7,-9 -22,-26 -46,-21 -41,2 2,10 8,13 11,20l0 0z"/>
     <path class="fil3" d="M184 111c0,-1 0,-2 1,-4l3 1 0 4c0,0 -2,2 -4,-1l0 0zm2 -25c-8,6 -15,16 -16,28 0,20 35,25 39,11 1,-7 1,-14 0,-20 -3,-16 -13,-26 -23,-19z"/>
    </g>
   </g>
   <path class="fil4 str0" d="M388 137c9,47 72,51 94,27"/>
   <path class="fil4 str1" d="M1236 126c0,11 -1,23 -6,35"/>
   <path class="fil0" d="M1150 71c5,1 5,2 9,-1 -4,-3 -5,-2 -9,1z"/>
   <path class="fil0" d="M1138 71c4,2 4,2 8,0 -4,-3 -4,-2 -8,0z"/>
   <path class="fil0" d="M967 158c5,2 5,2 7,-2 -4,-1 -5,-2 -7,2z"/>
  </g>
 </g>
</svg>
